<?xml version="1.0" encoding="UTF-8" standalone="no"?>
<svg
   height="24px"
   viewBox="0 -960 960 960"
   width="24px"
   fill="#000"
   version="1.1"
   id="svg1"
   sodipodi:docname="pin_business2.svg"
   inkscape:version="1.4 (e7c3feb1, 2024-10-09)"
   xml:space="preserve"
   inkscape:export-filename="pin_business2.png"
   inkscape:export-xdpi="768"
   inkscape:export-ydpi="768"
   xmlns:inkscape="http://www.inkscape.org/namespaces/inkscape"
   xmlns:sodipodi="http://sodipodi.sourceforge.net/DTD/sodipodi-0.dtd"
   xmlns="http://www.w3.org/2000/svg"
   xmlns:svg="http://www.w3.org/2000/svg"><defs
     id="defs1"><linearGradient
       x1="0"
       y1="0"
       x2="1"
       y2="0"
       gradientUnits="userSpaceOnUse"
       gradientTransform="matrix(6778.12,4541.12,4541.12,-6778.12,10421.2,11850)"
       spreadMethod="pad"
       id="linearGradient5"><stop
         style="stop-opacity:1;stop-color:#e59729"
         offset="0"
         id="stop3" /><stop
         style="stop-opacity:1;stop-color:#e59729"
         offset="0.732211"
         id="stop4" /><stop
         style="stop-opacity:1;stop-color:#cf7a28"
         offset="1"
         id="stop5" /></linearGradient><clipPath
       clipPathUnits="userSpaceOnUse"
       id="clipPath5"><path
         d="m 14401.2,4467.6 c 2087.3,1151.3 3467.1,3485 3461.8,6362.8 -8.4,4490.4 -3387.7,8604.6 -7548.1,9189.3 -332.65,46.7 -660.91,69.5 -982.08,69.5 -1094.92,0 -2115.16,-264.1 -3009.12,-743.4 l 1307.39,711.2 c 901.59,490.5 1933.69,761.2 3041.81,761.2 321.4,0 649.1,-22.8 982.1,-69.5 4160.4,-584.8 7539.7,-4698.9 7548.1,-9189.3 C 19208.4,8667.1 17814,6324.1 15709,5179 l -1307.8,-711.4"
         transform="translate(0,-2.5e-4)"
         id="path5" /></clipPath><linearGradient
       x1="0"
       y1="0"
       x2="1"
       y2="0"
       gradientUnits="userSpaceOnUse"
       gradientTransform="matrix(10285.6,6891.04,6891.04,-10285.6,5367.77,8564.5)"
       spreadMethod="pad"
       id="linearGradient7"><stop
         style="stop-opacity:1;stop-color:#e59729"
         offset="0"
         id="stop6" /><stop
         style="stop-opacity:1;stop-color:#f0c925"
         offset="1"
         id="stop7" /></linearGradient><clipPath
       clipPathUnits="userSpaceOnUse"
       id="clipPath7"><path
         d="m 11327.2,3688.9 c -321.2,0 -649.5,22.8 -982.1,69.5 -4160.38,584.7 -7539.84,4699 -7548.18,9189.4 -5.4,2907.4 1403.37,5259.5 3526.78,6398 893.96,479.3 1914.2,743.4 3009.12,743.4 321.17,0 649.43,-22.8 982.08,-69.5 4160.4,-584.7 7539.7,-4698.9 7548.1,-9189.3 5.3,-2877.8 -1374.5,-5211.5 -3461.8,-6362.8 -909.2,-501.5 -1952.6,-778.8 -3074,-778.7 M 9332.81,19193.8 c -745.35,0 -1459.68,-140.4 -2123.15,-417.2 C 6564.32,18507.4 5982.85,18116.2 5481.42,17613.8 4324.29,16454.5 3688.91,14798 3692.35,12949.4 c 1.85,-990.9 183.98,-1978.9 541.36,-2936.6 346.57,-928.6 841.9,-1788.6 1472.22,-2556 627.45,-763.9 1355.7,-1395.8 2164.52,-1878.3 826.53,-493.1 1701.05,-807.1 2599.25,-933.4 287.1,-40.3 575.6,-60.8 857.5,-60.8 h 0.6 c 745,0 1459.1,140.3 2122.3,416.9 645.3,269.2 1226.7,660.3 1728.1,1162.6 1157.3,1159.4 1792.8,2816.1 1789.4,4664.9 -1.9,991 -184,1979 -541.4,2936.6 -346.5,928.7 -841.9,1788.7 -1472.2,2556 -627.4,763.9 -1355.7,1395.8 -2164.5,1878.3 -826.5,493.1 -1701,807.1 -2599.2,933.3 -287.27,40.4 -575.78,60.9 -857.49,60.9"
         transform="translate(0,-2.5e-4)"
         id="path7" /></clipPath><linearGradient
       x1="0"
       y1="0"
       x2="1"
       y2="0"
       gradientUnits="userSpaceOnUse"
       gradientTransform="matrix(9015.28,6039.94,6039.94,-9015.28,5980.68,8975.1)"
       spreadMethod="pad"
       id="linearGradient9"><stop
         style="stop-opacity:1;stop-color:#f0c925"
         offset="0"
         id="stop8" /><stop
         style="stop-opacity:1;stop-color:#e59729"
         offset="1"
         id="stop9" /></linearGradient><clipPath
       clipPathUnits="userSpaceOnUse"
       id="clipPath9"><path
         d="m 11327.8,4584.3 h -0.6 c -281.9,0 -570.4,20.5 -857.5,60.8 -898.2,126.3 -1772.72,440.3 -2599.25,933.4 -808.82,482.5 -1537.07,1114.4 -2164.52,1878.3 -630.32,767.4 -1125.65,1627.4 -1472.22,2556 -357.38,957.7 -539.51,1945.7 -541.36,2936.6 -3.44,1848.6 631.94,3505.1 1789.07,4664.4 501.43,502.4 1082.9,893.6 1728.24,1162.8 663.47,276.8 1377.8,417.2 2123.15,417.2 281.71,0 570.22,-20.5 857.49,-60.9 898.2,-126.2 1772.7,-440.2 2599.2,-933.3 808.8,-482.5 1537.1,-1114.4 2164.5,-1878.3 630.3,-767.3 1125.7,-1627.3 1472.2,-2556 357.4,-957.6 539.5,-1945.6 541.4,-2936.6 3.4,-1848.8 -632.1,-3505.5 -1789.4,-4664.9 -501.4,-502.3 -1082.8,-893.4 -1728.1,-1162.6 -663.2,-276.6 -1377.3,-416.9 -2122.3,-416.9 M 10089,9703.5 c 112.7,0 224.5,-33.3 320.5,-98.4 l 978.4,-663.1 c 101.8,-68.9 211.9,-99.9 318.8,-99.9 154.5,0 302.3,64.4 409.3,171.8 42.6,42.1 285.8,282.3 322.1,324.3 99.9,115.5 155.2,272.4 130.9,449.1 l -168.1,1223.4 c -20.4,148.3 18.3,297.3 105.4,415.9 l 657.1,631 c 8.5,8.1 16.6,16.3 24.4,24.7 l 265.8,250.8 c 312,299.6 195.3,842.8 -216.5,975 l -1369.2,439.9 c -153.4,49.3 -278.9,161.2 -345.5,307.9 l -593.3,1307.9 c -99.7,220 -309.1,332.8 -527.5,332.8 -172.9,0 -351.5,-70.6 -486.17,-214.6 -21.14,-22.6 -150.55,-176.6 -216.61,-255.3 -35.32,-37.8 -66.53,-81.7 -92.28,-131.6 L 9140.87,14192 c -64.53,-28.4 -134.75,-45.1 -207.51,-48.1 l -1051.46,-42.4 c -176.01,-7.1 -317.28,-103.9 -430.63,-205.9 -30.39,-27.4 -218.33,-226.2 -248.46,-258.1 -189.57,-194.5 -233.28,-517.5 -36.74,-760.6 l 924.1,-1142.9 c 99.35,-122.9 143.37,-281.4 121.59,-437.9 L 8008.94,9838.3 c -49.84,-358.2 234.81,-650.8 564.69,-650.8 69.64,0 141.3,13 212.25,41.2 l 1092.01,434.4 c 68.14,27 139.81,40.4 211.11,40.4 m -5390.57,3917.7 c -259.63,0 -470.1,-210.5 -470.1,-470.1 0,-259.6 210.47,-470.1 470.1,-470.1 259.63,0 470.1,210.5 470.1,470.1 0,259.6 -210.47,470.1 -470.1,470.1 m 3537.88,4768.2 c -609.47,0 -1483.15,-451.3 -2251.29,-1219.5 -1057.05,-1057 -1514.06,-2313.9 -1020.79,-2807.1 79.06,-79.1 158.86,-114.9 241.5,-114.9 432.98,0 943.68,982.4 1831.3,1870 1057.06,1057.1 2248.42,1579.5 1755.16,2072.8 -134.82,134.8 -326.65,198.7 -555.88,198.7"
         transform="translate(0,-2.5e-4)"
         id="path9" /></clipPath><linearGradient
       x1="0"
       y1="0"
       x2="1"
       y2="0"
       gradientUnits="userSpaceOnUse"
       gradientTransform="matrix(4352.08,2915.75,2915.75,-4352.08,8474.64,10584.2)"
       spreadMethod="pad"
       id="linearGradient12"><stop
         style="stop-opacity:1;stop-color:#e59729"
         offset="0"
         id="stop10" /><stop
         style="stop-opacity:1;stop-color:#e59729"
         offset="0.732211"
         id="stop11" /><stop
         style="stop-opacity:1;stop-color:#cf7a28"
         offset="1"
         id="stop12" /></linearGradient><clipPath
       clipPathUnits="userSpaceOnUse"
       id="clipPath12"><path
         d="m 12116,9013.9 c 116.9,117.5 184.8,286.5 158.4,478.8 l -168.1,1223.4 c -24.9,181.1 38.4,363.2 170.2,489.9 l 229.8,220.6 c -87.1,-118.6 -125.8,-267.6 -105.4,-415.9 L 12569,9787.3 c 24.3,-176.7 -31,-333.6 -130.9,-449.1 -36.3,-42 -279.5,-282.2 -322.1,-324.3 m 1071.8,3068.4 c 280.8,302.9 155.3,802.5 -245.3,931.2 l -1369.2,439.9 c -153.4,49.3 -278.9,161.2 -345.5,307.9 l -593.3,1307.9 c -100.9,222.6 -310.6,335.3 -520.6,335.3 -151.91,0 -303.91,-58.9 -415.08,-177.8 66.06,78.7 195.47,232.7 216.61,255.3 134.67,144 313.27,214.6 486.17,214.6 218.4,0 427.8,-112.8 527.5,-332.8 l 593.3,-1307.9 c 66.6,-146.7 192.1,-258.6 345.5,-307.9 l 1369.2,-439.9 c 411.8,-132.2 528.5,-675.4 216.5,-975 l -265.8,-250.8 m -5984.99,1555.2 c 30.13,31.9 218.07,230.7 248.46,258.1 113.35,102 254.62,198.8 430.63,205.9 l 1051.46,42.4 c 72.76,3 142.98,19.7 207.51,48.1 l -17.4,-33.7 c -94.21,-182.7 -279.33,-300.7 -484.72,-309 l -1051.47,-42.4 c -157.01,-6.3 -289.17,-71.6 -384.47,-169.4"
         transform="translate(0,-2.5e-4)"
         id="path12" /></clipPath><linearGradient
       x1="0"
       y1="0"
       x2="1"
       y2="0"
       gradientUnits="userSpaceOnUse"
       gradientTransform="matrix(4354.44,2917.33,2917.33,-4354.44,8159.21,10321.1)"
       spreadMethod="pad"
       id="linearGradient14"><stop
         style="stop-opacity:1;stop-color:#f9ea43"
         offset="0"
         id="stop13" /><stop
         style="stop-opacity:1;stop-color:#efc136"
         offset="1"
         id="stop14" /></linearGradient><clipPath
       clipPathUnits="userSpaceOnUse"
       id="clipPath14"><path
         d="m 11706.7,8842.1 c -106.9,0 -217,31 -318.8,99.9 l -978.4,663.1 c -96,65.1 -207.8,98.4 -320.5,98.4 -71.3,0 -142.97,-13.4 -211.11,-40.4 L 8785.88,9228.7 c -70.95,-28.2 -142.61,-41.2 -212.25,-41.2 -329.88,0 -614.53,292.6 -564.69,650.8 l 202.82,1457.8 c 21.78,156.5 -22.24,315 -121.59,437.9 l -924.1,1142.9 c -196.54,243.1 -152.83,566.1 36.74,760.6 95.3,97.8 227.46,163.1 384.47,169.4 l 1051.47,42.4 c 205.39,8.3 390.51,126.3 484.72,309 l 17.4,33.7 465.67,903.1 c 25.75,49.9 56.96,93.8 92.28,131.6 111.17,118.9 263.17,177.8 415.08,177.8 210,0 419.7,-112.7 520.6,-335.3 l 593.3,-1307.9 c 66.6,-146.7 192.1,-258.6 345.5,-307.9 l 1369.2,-439.9 c 400.6,-128.7 526.1,-628.3 245.3,-931.2 -7.8,-8.4 -15.9,-16.6 -24.4,-24.7 l -657.1,-631 -229.8,-220.6 c -131.8,-126.7 -195.1,-308.8 -170.2,-489.9 l 168.1,-1223.4 c 26.4,-192.3 -41.5,-361.3 -158.4,-478.8 -107,-107.4 -254.8,-171.8 -409.3,-171.8 m -2975.58,4703.7 c -13.37,0 -27.03,-0.8 -40.87,-2.4 -134.27,-15 -234.9,-99.7 -224.86,-189.3 9,-80.2 104.01,-137.1 220.37,-137.1 13.38,0 27.04,0.8 40.88,2.3 134.26,15.1 234.9,99.8 224.86,189.4 -9.01,80.2 -104.01,137.1 -220.38,137.1 m 1292.78,1451.5 c -32.38,0 -65.56,-10.3 -95.33,-33.4 -3.23,-2.5 -6.35,-5.1 -9.38,-7.8 -60.6,-53.1 -114.94,-118.6 -140.66,-195 -97.75,-289.2 -214.2,-587 -554.62,-986 -58.22,-68.3 -88.97,-171.4 -52.45,-253.4 28.18,-63.2 98.76,-95.3 169.32,-95.3 22.75,0 45.51,3.3 66.83,10 87.46,27.4 155.09,96.3 214.7,165.8 282.83,330 477.09,735.2 557.09,1162.2 2.7,14.3 5.3,28.7 7.4,43.3 15.8,106.2 -70.5,189.6 -162.9,189.6"
         transform="translate(0,-2.5e-4)"
         id="path14" /></clipPath><linearGradient
       x1="0"
       y1="0"
       x2="1"
       y2="0"
       gradientUnits="userSpaceOnUse"
       gradientTransform="matrix(9015.28,6039.94,6039.94,-9015.28,5980.68,8975.1)"
       spreadMethod="pad"
       id="linearGradient16"><stop
         style="stop-opacity:1;stop-color:#f2da4e"
         offset="0"
         id="stop15" /><stop
         style="stop-opacity:1;stop-color:#e9b054"
         offset="1"
         id="stop16" /></linearGradient><clipPath
       clipPathUnits="userSpaceOnUse"
       id="clipPath16"><path
         d="m 5205.73,14247.9 c -82.64,0 -162.44,35.8 -241.5,114.9 -493.27,493.2 -36.26,1750.1 1020.79,2807.1 768.14,768.2 1641.82,1219.5 2251.29,1219.5 229.23,0 421.06,-63.9 555.88,-198.7 493.26,-493.3 -698.1,-1015.7 -1755.16,-2072.8 -887.62,-887.6 -1398.32,-1870 -1831.3,-1870"
         transform="translate(0,-2.5e-4)"
         id="path16" /></clipPath><clipPath
       clipPathUnits="userSpaceOnUse"
       id="clipPath18"><path
         d="m 4698.43,12681 c -259.63,0 -470.1,210.5 -470.1,470.1 0,259.6 210.47,470.1 470.1,470.1 259.63,0 470.1,-210.5 470.1,-470.1 0,-259.6 -210.47,-470.1 -470.1,-470.1"
         transform="translate(0,-2.5e-4)"
         id="path18" /></clipPath><linearGradient
       x1="0"
       y1="0"
       x2="1"
       y2="0"
       gradientUnits="userSpaceOnUse"
       gradientTransform="matrix(4354.44,2917.33,2917.33,-4354.44,8159.21,10321.1)"
       spreadMethod="pad"
       id="linearGradient20"><stop
         style="stop-opacity:1;stop-color:#f9f279"
         offset="0"
         id="stop19" /><stop
         style="stop-opacity:1;stop-color:#f4d76e"
         offset="1"
         id="stop20" /></linearGradient><clipPath
       clipPathUnits="userSpaceOnUse"
       id="clipPath20"><path
         d="m 9340.78,13426.4 c -70.56,0 -141.14,32.1 -169.32,95.3 -36.52,82 -5.77,185.1 52.45,253.4 340.42,399 456.87,696.8 554.62,986 25.72,76.4 80.06,141.9 140.66,195 3.03,2.7 6.15,5.3 9.38,7.8 29.77,23.1 62.95,33.4 95.33,33.4 92.4,0 178.7,-83.4 162.9,-189.6 -2.1,-14.6 -4.7,-29 -7.4,-43.3 -80,-427 -274.26,-832.2 -557.09,-1162.2 -59.61,-69.5 -127.24,-138.4 -214.7,-165.8 -21.32,-6.7 -44.08,-10 -66.83,-10"
         transform="translate(0,-2.5e-4)"
         id="path20" /></clipPath><clipPath
       clipPathUnits="userSpaceOnUse"
       id="clipPath22"><path
         d="m 8685.76,13217 c -116.36,0 -211.37,56.9 -220.37,137.1 -10.04,89.6 90.59,174.3 224.86,189.3 13.84,1.6 27.5,2.4 40.87,2.4 116.37,0 211.37,-56.9 220.38,-137.1 10.04,-89.6 -90.6,-174.3 -224.86,-189.4 -13.84,-1.5 -27.5,-2.3 -40.88,-2.3"
         transform="translate(0,-2.5e-4)"
         id="path22" /></clipPath><clipPath
       clipPathUnits="userSpaceOnUse"
       id="clipPath23"><path
         d="m 7699,1134 v 1916 h 2461 V 1134 Z"
         transform="matrix(4.0548211e-4,0,0,-5.2050802e-4,-3.1197387,1.5902039)"
         id="path23" /></clipPath><clipPath
       clipPathUnits="userSpaceOnUse"
       id="clipPath24"><path
         d="m 10154,1134 v 1916 h 2466 V 1134 Z"
         transform="matrix(4.0548211e-4,0,0,-5.2050802e-4,-4.1172247,1.5902039)"
         id="path24" /></clipPath><clipPath
       clipPathUnits="userSpaceOnUse"
       id="clipPath25"><path
         d="m 12614,1134 v 1916 h 2461 V 1134 Z"
         transform="matrix(4.0548211e-4,0,0,-5.2050802e-4,-5.1147107,1.5902039)"
         id="path25" /></clipPath><clipPath
       clipPathUnits="userSpaceOnUse"
       id="clipPath26"><path
         d="m 7699,820 v 320 h 7376 V 820 Z"
         transform="matrix(1.3538761e-4,0,0,-0.00307503,-1.0416587,3.5058426)"
         id="path26" /></clipPath></defs><sodipodi:namedview
     id="namedview1"
     pagecolor="#ffffff"
     bordercolor="#000000"
     borderopacity="0.25"
     inkscape:showpageshadow="2"
     inkscape:pageopacity="0.0"
     inkscape:pagecheckerboard="0"
     inkscape:deskcolor="#d1d1d1"
     inkscape:zoom="24.57196"
     inkscape:cx="6.5114871"
     inkscape:cy="12.554961"
     inkscape:window-width="1728"
     inkscape:window-height="982"
     inkscape:window-x="0"
     inkscape:window-y="38"
     inkscape:window-maximized="1"
     inkscape:current-layer="svg1" /><path
     d="m 479.99998,-166.8 c -9.6,0 -19.2,-1.6 -28.8,-4.8 -9.6,-3.2 -18.4,-8 -26.4,-14.4 -94.4,-75.2 -164.8,-148.6 -211.2,-220.2 -46.4,-71.6 -69.6,-141.8 -69.6,-210.6 0,-100 31.2,-182.2 93.6,-246.6 62.4,-64.4 143.2,-96.6 242.4,-96.6 99.20004,0 180.00004,32.2 242.40004,96.6 62.4,64.4 93.6,146.6 93.6,246.6 0,68.8 -23.2,139 -69.6,210.6 -46.4,71.6 -116.8,145 -211.2,220.2 -8.00003,6.4 -16.80004,11.2 -26.40004,14.4 -9.6,3.2 -19.2,4.8 -28.8,4.8 z"
     id="path1-2"
     style="stroke-width:1.2;fill:#eaf4fe;fill-opacity:1"
     sodipodi:nodetypes="sscssssssscss" /><path
     d="m 480,-265.2 c 79.2,-64 139,-125.6 179.4,-184.8 40.4,-59.2 60.6,-114.8 60.6,-166.8 0,-72 -22.4,-131.2 -67.2,-177.6 C 608,-840.8 550.4,-864 480,-864 c -70.4,0 -128,23.2 -172.8,69.6 -44.8,46.4 -67.2,105.6 -67.2,177.6 0,52 20.2,107.6 60.6,166.8 40.4,59.2 100.2,120.8 179.4,184.8 z m 0,98.4 c -9.6,0 -19.2,-1.6 -28.8,-4.8 -9.6,-3.2 -18.4,-8 -26.4,-14.4 C 330.4,-261.2 260,-334.6 213.6,-406.2 167.2,-477.8 144,-548 144,-616.8 c 0,-100 31.2,-182.2 93.6,-246.6 62.4,-64.4 143.2,-96.6 242.4,-96.6 99.2,0 180,32.2 242.4,96.6 62.4,64.4 93.6,146.6 93.6,246.6 0,68.8 -23.2,139 -69.6,210.6 -46.4,71.6 -116.8,145 -211.2,220.2 -8,6.4 -16.8,11.2 -26.4,14.4 -9.6,3.2 -19.2,4.8 -28.8,4.8 z M 192,0 C 178.4,0 167,-4.6 157.8,-13.8 148.6,-23 144,-34.4 144,-48 c 0,-13.6 4.6,-25 13.8,-34.2 C 167,-91.4 178.4,-96 192,-96 h 576 c 13.6,0 25,4.6 34.2,13.8 9.2,9.2 13.8,20.6 13.8,34.2 0,13.6 -4.6,25 -13.8,34.2 C 793,-4.6 781.6,0 768,0 Z"
     id="path1"
     style="fill:#01a1ed;fill-opacity:1;stroke-width:1.2"
     sodipodi:nodetypes="cssssssscsscssssssscsssssssssssss" /><g
     id="g3"
     transform="matrix(1.9792672,0,0,-1.9792672,-129.90249,156.90346)"><ellipse
       rx="80.688004"
       ry="80.837997"
       transform="scale(1,-1)"
       cy="-397.5"
       cx="307.95001"
       fill="#005ea6"
       id="ellipse1" /><circle
       transform="scale(1,-1)"
       cy="-397.53"
       cx="307.82999"
       r="76.975998"
       fill="#de5b9e"
       id="circle1" /><ellipse
       rx="70.244003"
       ry="69.793999"
       transform="scale(1,-1)"
       cy="-397.25"
       cx="307.70001"
       fill="#ffffff"
       id="ellipse2" /><path
       d="m 112.04,38.465 -1.66,75.005 c 3.2,0.52 6.9,0.66 10.56,1.1 2.72,-25.201 4.97,-50.088 7.9,-74.89 z M 71.221,38.92 c -0.754,0.005 -1.509,0.022 -2.268,0.049 l 0.731,16.195 c 3.016,-0.106 5.7,0.246 8,0.732 4.157,0.879 8.598,2.737 9.123,7.418 0.809,7.234 -5.699,12.276 -13.827,12.541 l 0.469,8.938 c 5.275,0.287 11.148,1.829 13.865,5.602 0.898,1.247 1.539,2.96 1.549,5.084 0.017,3.51 -1.818,6.931 -4.324,9.061 -3.139,2.66 -8.241,3.75 -13.225,3.47 l -0.056,5.9 c 13.889,0.31 27.027,-3.21 31.792,-12.72 1.15,-2.289 2.24,-5.805 2.21,-8.639 -0.07,-4.882 -2.25,-8.097 -4.5,-10.155 -2.791,-2.56 -6.45,-4.172 -10.102,-5.283 7.078,-3.267 13.652,-8.86 12.512,-18.273 -0.49,-4.007 -2.19,-7.652 -4.191,-10.192 C 93.117,41.199 82.522,38.836 71.221,38.92 Z"
       fill-rule="evenodd"
       transform="matrix(0.8,0,0,-0.8,225.16,480.04)"
       fill="#de5b9e"
       id="path2" /><path
       d="m 66.213,41.939 -19.162,3.11 c 4.336,23.199 8.932,45.342 13.267,68.171 2.692,-0.14 5.294,-0.17 8.02,-0.35 -0.83,-23.322 -1.23,-48.719 -2.125,-70.931 z m 64.507,0.291 -1.61,17.315 c 4.15,0.921 8.57,2.556 10.59,6.072 1.88,3.266 1.12,7.837 -0.68,10.197 -2.47,3.242 -7.21,5.16 -12.06,6.403 -0.41,2.984 -0.7,6.059 -1.15,9.013 l 13.96,22.27 8.96,-1.64 -8.64,-23.128 c 8.9,-3.61 15.65,-9.284 17.89,-17.74 2.32,-8.785 -0.88,-17.459 -6.31,-22.025 -5.21,-4.375 -12.88,-6.353 -20.95,-6.737 z m -22.9,75.05 c -0.32,8.41 -1,16.54 -1.4,24.89 l 8.97,-8.67 4.76,6.67 3.97,-2.71 -5.32,-7.25 4.48,-4.33 c -1.12,-0.93 -2.23,-1.86 -3.28,-2.88 l -8.3,8.06 c 0.3,-4.53 0.75,-8.93 0.91,-13.56 z m 20.53,2.3 c -1.57,0.08 -2.79,1.33 -2.72,2.81 0.07,1.47 1.4,2.61 2.97,2.54 1.58,-0.08 2.79,-1.34 2.72,-2.81 -0.06,-1.48 -1.4,-2.61 -2.97,-2.54 z m -68.719,0.17 -4.68,0.64 3.106,22.97 4.679,-0.63 -0.25,-1.85 c 1.392,0.59 2.959,0.82 4.573,0.61 4.713,-0.64 8.046,-4.86 7.431,-9.42 -0.615,-4.55 -4.949,-7.73 -9.662,-7.1 -1.614,0.22 -3.06,0.87 -4.248,1.8 z m 44.159,2.99 c -0.09,0.01 -0.19,0.02 -0.28,0.04 -4.017,1.32 -8.121,3.15 -6.903,7.72 0.296,1.1 1.099,2.58 1.67,3.81 0.639,1.38 1.685,2.74 1.672,3.82 -0.021,1.78 -2.301,2.66 -3.928,2.99 0.546,0.89 0.863,2.09 1.415,2.98 3.134,-0.64 5.694,-1.98 6.834,-3.95 1.42,-2.48 -0.15,-4.69 -1.25,-7.05 -0.48,-1.04 -1.72,-3.32 -1.73,-4.25 -0.01,-1.72 2.16,-2.74 3.79,-2.97 -0.04,-0.91 -0.92,-2.11 -1.29,-3.14 z m 31.55,0.5 -0.86,18.39 4.82,0.2 0.29,-8.02 10.95,11.13 0.86,-18.39 -4.82,-0.2 -0.29,8.01 z m -45.965,3.05 -0.006,1.94 c -1.233,-0.87 -2.71,-1.44 -4.334,-1.58 -4.74,-0.4 -8.908,3 -9.293,7.58 -0.383,4.58 3.159,8.63 7.899,9.03 1.624,0.13 3.175,-0.18 4.535,-0.83 l -0.155,1.85 4.706,0.39 1.353,-17.98 z m 41.725,0 -4.82,0.16 0.5,15.42 4.83,-0.16 z m -64.834,3.08 c 1.922,0.11 3.543,1.46 3.793,3.3 0.284,2.11 -1.33,4.08 -3.6,4.38 -2.27,0.31 -4.348,-1.16 -4.633,-3.26 -0.285,-2.11 1.33,-4.08 3.6,-4.39 0.283,-0.03 0.565,-0.04 0.84,-0.03 z m 18.396,1.74 c 2.282,0.19 3.994,2.07 3.817,4.19 -0.179,2.12 -2.181,3.69 -4.463,3.5 -2.283,-0.19 -3.995,-2.07 -3.817,-4.19 0.179,-2.12 2.181,-3.69 4.463,-3.5 z m 20.128,11.99 -4.26,0.12 0.59,20.92 4.26,-0.12 -0.05,-1.68 c 1.19,0.66 2.58,1.02 4.05,0.98 4.29,-0.12 7.69,-3.59 7.57,-7.74 -0.11,-4.14 -3.7,-7.42 -7.99,-7.3 -1.47,0.04 -2.83,0.48 -3.99,1.2 z m 16.87,0 c -1.44,-0.08 -2.67,0.91 -2.75,2.22 -0.08,1.31 1.02,2.44 2.45,2.53 1.44,0.09 2.66,-0.9 2.75,-2.21 0.08,-1.31 -1.02,-2.45 -2.45,-2.54 z m 4.77,0.92 -0.39,18.26 4.59,0.19 -0.09,-7.43 10.31,10.96 0.49,-17.6 -4.26,-0.09 -0.28,7.62 z m -42.502,2.27 -0.565,20.93 4.262,0.11 0.045,-1.68 c 1.156,0.72 2.516,1.16 3.986,1.2 4.293,0.12 7.875,-3.16 7.987,-7.31 0.111,-4.14 -3.288,-7.61 -7.581,-7.73 -1.47,-0.04 -2.852,0.33 -4.044,0.99 l 0.171,-6.39 z m -22.467,0.26 -5.326,0.48 1.795,19.5 5.228,-0.47 -0.724,-7.86 c -0.451,-3.59 0.998,-6.7 4.754,-6.24 l -0.409,-4.83 c -1.729,-0.33 -4.454,0.67 -5.152,1.46 z m 89.069,0.12 c -3.65,0.61 -6.62,2.29 -7.25,4.86 -0.53,2.2 0.9,4.2 1.69,6.09 0.49,1.18 1.72,3.32 1.74,4.36 0.02,1.86 -2.21,2.63 -3.77,2.95 0.37,1.13 0.81,2.15 1.28,3.13 3.03,-0.48 5.33,-1.65 6.45,-3.31 1.65,-2.45 -0.05,-5.58 -1.09,-8.04 -0.61,-1.45 -1.59,-3.07 -1.56,-4.1 0.06,-1.81 2.3,-2.48 3.79,-2.81 -0.36,-1.14 -0.88,-2.06 -1.28,-3.13 z m -31.55,1.79 -0.85,13.82 4.33,0.27 0.85,-13.82 z m 37.53,1.56 c -0.45,0.03 -0.9,0.14 -1.33,0.34 -0.59,0.27 -1.06,0.67 -1.42,1.22 -0.36,0.55 -0.57,1.14 -0.61,1.76 -0.04,0.62 0.07,1.22 0.35,1.81 0.27,0.58 0.68,1.05 1.22,1.41 0.54,0.35 1.13,0.55 1.75,0.6 0.62,0.04 1.22,-0.08 1.81,-0.35 0.58,-0.28 1.05,-0.68 1.41,-1.23 0.35,-0.54 0.55,-1.12 0.59,-1.74 0.04,-0.62 -0.07,-1.23 -0.35,-1.82 -0.28,-0.6 -0.7,-1.07 -1.24,-1.41 -0.54,-0.35 -1.11,-0.54 -1.72,-0.58 -0.16,-0.02 -0.31,-0.02 -0.46,-0.01 z m -82.67,0.5 c -0.268,0.01 -0.539,0.04 -0.811,0.07 -4.344,0.59 -7.427,4.41 -6.873,8.52 0.556,4.1 4.542,6.97 8.887,6.38 4.345,-0.59 7.428,-4.41 6.873,-8.51 -0.521,-3.85 -4.056,-6.61 -8.076,-6.46 z m 83.08,0.22 c 0.49,0.03 0.95,0.19 1.39,0.46 0.43,0.28 0.76,0.65 0.99,1.13 0.23,0.48 0.32,0.96 0.29,1.47 -0.04,0.49 -0.2,0.96 -0.48,1.4 -0.29,0.43 -0.67,0.76 -1.14,0.98 -0.47,0.22 -0.95,0.32 -1.45,0.28 -0.5,-0.03 -0.96,-0.19 -1.4,-0.48 -0.43,-0.28 -0.76,-0.66 -0.98,-1.13 -0.22,-0.47 -0.31,-0.95 -0.28,-1.45 0.04,-0.51 0.2,-0.98 0.49,-1.42 0.29,-0.44 0.67,-0.76 1.14,-0.98 0.46,-0.21 0.94,-0.3 1.43,-0.26 z m -1.68,0.88 -0.27,3.76 0.77,0.06 0.11,-1.55 0.2,0.02 c 0.21,0.01 0.39,0.08 0.52,0.2 0.13,0.11 0.29,0.38 0.47,0.81 l 0.27,0.63 0.96,0.07 -0.39,-0.8 c -0.14,-0.28 -0.23,-0.43 -0.25,-0.47 -0.1,-0.15 -0.18,-0.26 -0.24,-0.31 -0.05,-0.06 -0.14,-0.11 -0.25,-0.16 0.32,-0.02 0.58,-0.13 0.77,-0.31 0.19,-0.18 0.3,-0.4 0.32,-0.68 0.01,-0.19 -0.02,-0.38 -0.11,-0.55 -0.08,-0.16 -0.19,-0.29 -0.33,-0.38 -0.13,-0.09 -0.32,-0.15 -0.58,-0.19 -0.08,-0.02 -0.49,-0.05 -1.21,-0.1 z m 0.72,0.65 0.32,0.02 c 0.43,0.03 0.7,0.07 0.81,0.11 0.11,0.05 0.19,0.11 0.25,0.2 0.05,0.08 0.08,0.18 0.07,0.28 -0.01,0.11 -0.05,0.21 -0.12,0.29 -0.06,0.08 -0.15,0.13 -0.26,0.16 -0.11,0.02 -0.38,0.02 -0.83,-0.01 l -0.31,-0.02 z m -46.89,0.05 c 2.07,-0.06 3.79,1.45 3.85,3.38 0.05,1.92 -1.59,3.52 -3.65,3.58 -2.07,0.06 -3.8,-1.45 -3.85,-3.37 -0.06,-1.92 1.58,-3.53 3.65,-3.59 z m -34.701,2.1 c 1.872,0.09 3.444,1.35 3.678,3.08 0.126,0.93 -0.153,1.86 -0.785,2.63 -0.669,0.82 -1.644,1.34 -2.742,1.49 -2.212,0.3 -4.227,-1.06 -4.495,-3.04 -0.266,-1.97 1.316,-3.82 3.528,-4.12 0.276,-0.04 0.549,-0.05 0.816,-0.04 z m 17.584,1.43 c 2.067,0.06 3.706,1.66 3.654,3.58 -0.052,1.93 -1.775,3.44 -3.841,3.39 -2.068,-0.06 -3.707,-1.67 -3.655,-3.59 0.052,-1.92 1.775,-3.44 3.842,-3.38 z"
       fill-rule="evenodd"
       transform="matrix(0.8,0,0,-0.8,225.16,480.04)"
       fill="#005ea6"
       id="path3-2" /></g></svg>
