<?xml version="1.0" encoding="UTF-8" standalone="no"?>
<svg
   height="24px"
   viewBox="0 -960 960 960"
   width="24px"
   fill="#000"
   version="1.1"
   id="svg1"
   sodipodi:docname="pin_coin.svg"
   inkscape:version="1.4 (e7c3feb1, 2024-10-09)"
   xml:space="preserve"
   inkscape:export-filename="pin_coin.png"
   inkscape:export-xdpi="768"
   inkscape:export-ydpi="768"
   xmlns:inkscape="http://www.inkscape.org/namespaces/inkscape"
   xmlns:sodipodi="http://sodipodi.sourceforge.net/DTD/sodipodi-0.dtd"
   xmlns="http://www.w3.org/2000/svg"
   xmlns:svg="http://www.w3.org/2000/svg"><defs
     id="defs1"><linearGradient
       x1="0"
       y1="0"
       x2="1"
       y2="0"
       gradientUnits="userSpaceOnUse"
       gradientTransform="matrix(6778.12,4541.12,4541.12,-6778.12,10421.2,11850)"
       spreadMethod="pad"
       id="linearGradient5"><stop
         style="stop-opacity:1;stop-color:#e59729"
         offset="0"
         id="stop3" /><stop
         style="stop-opacity:1;stop-color:#e59729"
         offset="0.732211"
         id="stop4" /><stop
         style="stop-opacity:1;stop-color:#cf7a28"
         offset="1"
         id="stop5" /></linearGradient><clipPath
       clipPathUnits="userSpaceOnUse"
       id="clipPath5"><path
         d="m 14401.2,4467.6 c 2087.3,1151.3 3467.1,3485 3461.8,6362.8 -8.4,4490.4 -3387.7,8604.6 -7548.1,9189.3 -332.65,46.7 -660.91,69.5 -982.08,69.5 -1094.92,0 -2115.16,-264.1 -3009.12,-743.4 l 1307.39,711.2 c 901.59,490.5 1933.69,761.2 3041.81,761.2 321.4,0 649.1,-22.8 982.1,-69.5 4160.4,-584.8 7539.7,-4698.9 7548.1,-9189.3 C 19208.4,8667.1 17814,6324.1 15709,5179 l -1307.8,-711.4"
         transform="translate(0,-2.5e-4)"
         id="path5" /></clipPath><linearGradient
       x1="0"
       y1="0"
       x2="1"
       y2="0"
       gradientUnits="userSpaceOnUse"
       gradientTransform="matrix(10285.6,6891.04,6891.04,-10285.6,5367.77,8564.5)"
       spreadMethod="pad"
       id="linearGradient7"><stop
         style="stop-opacity:1;stop-color:#e59729"
         offset="0"
         id="stop6" /><stop
         style="stop-opacity:1;stop-color:#f0c925"
         offset="1"
         id="stop7" /></linearGradient><clipPath
       clipPathUnits="userSpaceOnUse"
       id="clipPath7"><path
         d="m 11327.2,3688.9 c -321.2,0 -649.5,22.8 -982.1,69.5 -4160.38,584.7 -7539.84,4699 -7548.18,9189.4 -5.4,2907.4 1403.37,5259.5 3526.78,6398 893.96,479.3 1914.2,743.4 3009.12,743.4 321.17,0 649.43,-22.8 982.08,-69.5 4160.4,-584.7 7539.7,-4698.9 7548.1,-9189.3 5.3,-2877.8 -1374.5,-5211.5 -3461.8,-6362.8 -909.2,-501.5 -1952.6,-778.8 -3074,-778.7 M 9332.81,19193.8 c -745.35,0 -1459.68,-140.4 -2123.15,-417.2 C 6564.32,18507.4 5982.85,18116.2 5481.42,17613.8 4324.29,16454.5 3688.91,14798 3692.35,12949.4 c 1.85,-990.9 183.98,-1978.9 541.36,-2936.6 346.57,-928.6 841.9,-1788.6 1472.22,-2556 627.45,-763.9 1355.7,-1395.8 2164.52,-1878.3 826.53,-493.1 1701.05,-807.1 2599.25,-933.4 287.1,-40.3 575.6,-60.8 857.5,-60.8 h 0.6 c 745,0 1459.1,140.3 2122.3,416.9 645.3,269.2 1226.7,660.3 1728.1,1162.6 1157.3,1159.4 1792.8,2816.1 1789.4,4664.9 -1.9,991 -184,1979 -541.4,2936.6 -346.5,928.7 -841.9,1788.7 -1472.2,2556 -627.4,763.9 -1355.7,1395.8 -2164.5,1878.3 -826.5,493.1 -1701,807.1 -2599.2,933.3 -287.27,40.4 -575.78,60.9 -857.49,60.9"
         transform="translate(0,-2.5e-4)"
         id="path7" /></clipPath><linearGradient
       x1="0"
       y1="0"
       x2="1"
       y2="0"
       gradientUnits="userSpaceOnUse"
       gradientTransform="matrix(9015.28,6039.94,6039.94,-9015.28,5980.68,8975.1)"
       spreadMethod="pad"
       id="linearGradient9"><stop
         style="stop-opacity:1;stop-color:#f0c925"
         offset="0"
         id="stop8" /><stop
         style="stop-opacity:1;stop-color:#e59729"
         offset="1"
         id="stop9" /></linearGradient><clipPath
       clipPathUnits="userSpaceOnUse"
       id="clipPath9"><path
         d="m 11327.8,4584.3 h -0.6 c -281.9,0 -570.4,20.5 -857.5,60.8 -898.2,126.3 -1772.72,440.3 -2599.25,933.4 -808.82,482.5 -1537.07,1114.4 -2164.52,1878.3 -630.32,767.4 -1125.65,1627.4 -1472.22,2556 -357.38,957.7 -539.51,1945.7 -541.36,2936.6 -3.44,1848.6 631.94,3505.1 1789.07,4664.4 501.43,502.4 1082.9,893.6 1728.24,1162.8 663.47,276.8 1377.8,417.2 2123.15,417.2 281.71,0 570.22,-20.5 857.49,-60.9 898.2,-126.2 1772.7,-440.2 2599.2,-933.3 808.8,-482.5 1537.1,-1114.4 2164.5,-1878.3 630.3,-767.3 1125.7,-1627.3 1472.2,-2556 357.4,-957.6 539.5,-1945.6 541.4,-2936.6 3.4,-1848.8 -632.1,-3505.5 -1789.4,-4664.9 -501.4,-502.3 -1082.8,-893.4 -1728.1,-1162.6 -663.2,-276.6 -1377.3,-416.9 -2122.3,-416.9 M 10089,9703.5 c 112.7,0 224.5,-33.3 320.5,-98.4 l 978.4,-663.1 c 101.8,-68.9 211.9,-99.9 318.8,-99.9 154.5,0 302.3,64.4 409.3,171.8 42.6,42.1 285.8,282.3 322.1,324.3 99.9,115.5 155.2,272.4 130.9,449.1 l -168.1,1223.4 c -20.4,148.3 18.3,297.3 105.4,415.9 l 657.1,631 c 8.5,8.1 16.6,16.3 24.4,24.7 l 265.8,250.8 c 312,299.6 195.3,842.8 -216.5,975 l -1369.2,439.9 c -153.4,49.3 -278.9,161.2 -345.5,307.9 l -593.3,1307.9 c -99.7,220 -309.1,332.8 -527.5,332.8 -172.9,0 -351.5,-70.6 -486.17,-214.6 -21.14,-22.6 -150.55,-176.6 -216.61,-255.3 -35.32,-37.8 -66.53,-81.7 -92.28,-131.6 L 9140.87,14192 c -64.53,-28.4 -134.75,-45.1 -207.51,-48.1 l -1051.46,-42.4 c -176.01,-7.1 -317.28,-103.9 -430.63,-205.9 -30.39,-27.4 -218.33,-226.2 -248.46,-258.1 -189.57,-194.5 -233.28,-517.5 -36.74,-760.6 l 924.1,-1142.9 c 99.35,-122.9 143.37,-281.4 121.59,-437.9 L 8008.94,9838.3 c -49.84,-358.2 234.81,-650.8 564.69,-650.8 69.64,0 141.3,13 212.25,41.2 l 1092.01,434.4 c 68.14,27 139.81,40.4 211.11,40.4 m -5390.57,3917.7 c -259.63,0 -470.1,-210.5 -470.1,-470.1 0,-259.6 210.47,-470.1 470.1,-470.1 259.63,0 470.1,210.5 470.1,470.1 0,259.6 -210.47,470.1 -470.1,470.1 m 3537.88,4768.2 c -609.47,0 -1483.15,-451.3 -2251.29,-1219.5 -1057.05,-1057 -1514.06,-2313.9 -1020.79,-2807.1 79.06,-79.1 158.86,-114.9 241.5,-114.9 432.98,0 943.68,982.4 1831.3,1870 1057.06,1057.1 2248.42,1579.5 1755.16,2072.8 -134.82,134.8 -326.65,198.7 -555.88,198.7"
         transform="translate(0,-2.5e-4)"
         id="path9" /></clipPath><linearGradient
       x1="0"
       y1="0"
       x2="1"
       y2="0"
       gradientUnits="userSpaceOnUse"
       gradientTransform="matrix(4352.08,2915.75,2915.75,-4352.08,8474.64,10584.2)"
       spreadMethod="pad"
       id="linearGradient12"><stop
         style="stop-opacity:1;stop-color:#e59729"
         offset="0"
         id="stop10" /><stop
         style="stop-opacity:1;stop-color:#e59729"
         offset="0.732211"
         id="stop11" /><stop
         style="stop-opacity:1;stop-color:#cf7a28"
         offset="1"
         id="stop12" /></linearGradient><clipPath
       clipPathUnits="userSpaceOnUse"
       id="clipPath12"><path
         d="m 12116,9013.9 c 116.9,117.5 184.8,286.5 158.4,478.8 l -168.1,1223.4 c -24.9,181.1 38.4,363.2 170.2,489.9 l 229.8,220.6 c -87.1,-118.6 -125.8,-267.6 -105.4,-415.9 L 12569,9787.3 c 24.3,-176.7 -31,-333.6 -130.9,-449.1 -36.3,-42 -279.5,-282.2 -322.1,-324.3 m 1071.8,3068.4 c 280.8,302.9 155.3,802.5 -245.3,931.2 l -1369.2,439.9 c -153.4,49.3 -278.9,161.2 -345.5,307.9 l -593.3,1307.9 c -100.9,222.6 -310.6,335.3 -520.6,335.3 -151.91,0 -303.91,-58.9 -415.08,-177.8 66.06,78.7 195.47,232.7 216.61,255.3 134.67,144 313.27,214.6 486.17,214.6 218.4,0 427.8,-112.8 527.5,-332.8 l 593.3,-1307.9 c 66.6,-146.7 192.1,-258.6 345.5,-307.9 l 1369.2,-439.9 c 411.8,-132.2 528.5,-675.4 216.5,-975 l -265.8,-250.8 m -5984.99,1555.2 c 30.13,31.9 218.07,230.7 248.46,258.1 113.35,102 254.62,198.8 430.63,205.9 l 1051.46,42.4 c 72.76,3 142.98,19.7 207.51,48.1 l -17.4,-33.7 c -94.21,-182.7 -279.33,-300.7 -484.72,-309 l -1051.47,-42.4 c -157.01,-6.3 -289.17,-71.6 -384.47,-169.4"
         transform="translate(0,-2.5e-4)"
         id="path12" /></clipPath><linearGradient
       x1="0"
       y1="0"
       x2="1"
       y2="0"
       gradientUnits="userSpaceOnUse"
       gradientTransform="matrix(4354.44,2917.33,2917.33,-4354.44,8159.21,10321.1)"
       spreadMethod="pad"
       id="linearGradient14"><stop
         style="stop-opacity:1;stop-color:#f9ea43"
         offset="0"
         id="stop13" /><stop
         style="stop-opacity:1;stop-color:#efc136"
         offset="1"
         id="stop14" /></linearGradient><clipPath
       clipPathUnits="userSpaceOnUse"
       id="clipPath14"><path
         d="m 11706.7,8842.1 c -106.9,0 -217,31 -318.8,99.9 l -978.4,663.1 c -96,65.1 -207.8,98.4 -320.5,98.4 -71.3,0 -142.97,-13.4 -211.11,-40.4 L 8785.88,9228.7 c -70.95,-28.2 -142.61,-41.2 -212.25,-41.2 -329.88,0 -614.53,292.6 -564.69,650.8 l 202.82,1457.8 c 21.78,156.5 -22.24,315 -121.59,437.9 l -924.1,1142.9 c -196.54,243.1 -152.83,566.1 36.74,760.6 95.3,97.8 227.46,163.1 384.47,169.4 l 1051.47,42.4 c 205.39,8.3 390.51,126.3 484.72,309 l 17.4,33.7 465.67,903.1 c 25.75,49.9 56.96,93.8 92.28,131.6 111.17,118.9 263.17,177.8 415.08,177.8 210,0 419.7,-112.7 520.6,-335.3 l 593.3,-1307.9 c 66.6,-146.7 192.1,-258.6 345.5,-307.9 l 1369.2,-439.9 c 400.6,-128.7 526.1,-628.3 245.3,-931.2 -7.8,-8.4 -15.9,-16.6 -24.4,-24.7 l -657.1,-631 -229.8,-220.6 c -131.8,-126.7 -195.1,-308.8 -170.2,-489.9 l 168.1,-1223.4 c 26.4,-192.3 -41.5,-361.3 -158.4,-478.8 -107,-107.4 -254.8,-171.8 -409.3,-171.8 m -2975.58,4703.7 c -13.37,0 -27.03,-0.8 -40.87,-2.4 -134.27,-15 -234.9,-99.7 -224.86,-189.3 9,-80.2 104.01,-137.1 220.37,-137.1 13.38,0 27.04,0.8 40.88,2.3 134.26,15.1 234.9,99.8 224.86,189.4 -9.01,80.2 -104.01,137.1 -220.38,137.1 m 1292.78,1451.5 c -32.38,0 -65.56,-10.3 -95.33,-33.4 -3.23,-2.5 -6.35,-5.1 -9.38,-7.8 -60.6,-53.1 -114.94,-118.6 -140.66,-195 -97.75,-289.2 -214.2,-587 -554.62,-986 -58.22,-68.3 -88.97,-171.4 -52.45,-253.4 28.18,-63.2 98.76,-95.3 169.32,-95.3 22.75,0 45.51,3.3 66.83,10 87.46,27.4 155.09,96.3 214.7,165.8 282.83,330 477.09,735.2 557.09,1162.2 2.7,14.3 5.3,28.7 7.4,43.3 15.8,106.2 -70.5,189.6 -162.9,189.6"
         transform="translate(0,-2.5e-4)"
         id="path14" /></clipPath><linearGradient
       x1="0"
       y1="0"
       x2="1"
       y2="0"
       gradientUnits="userSpaceOnUse"
       gradientTransform="matrix(9015.28,6039.94,6039.94,-9015.28,5980.68,8975.1)"
       spreadMethod="pad"
       id="linearGradient16"><stop
         style="stop-opacity:1;stop-color:#f2da4e"
         offset="0"
         id="stop15" /><stop
         style="stop-opacity:1;stop-color:#e9b054"
         offset="1"
         id="stop16" /></linearGradient><clipPath
       clipPathUnits="userSpaceOnUse"
       id="clipPath16"><path
         d="m 5205.73,14247.9 c -82.64,0 -162.44,35.8 -241.5,114.9 -493.27,493.2 -36.26,1750.1 1020.79,2807.1 768.14,768.2 1641.82,1219.5 2251.29,1219.5 229.23,0 421.06,-63.9 555.88,-198.7 493.26,-493.3 -698.1,-1015.7 -1755.16,-2072.8 -887.62,-887.6 -1398.32,-1870 -1831.3,-1870"
         transform="translate(0,-2.5e-4)"
         id="path16" /></clipPath><clipPath
       clipPathUnits="userSpaceOnUse"
       id="clipPath18"><path
         d="m 4698.43,12681 c -259.63,0 -470.1,210.5 -470.1,470.1 0,259.6 210.47,470.1 470.1,470.1 259.63,0 470.1,-210.5 470.1,-470.1 0,-259.6 -210.47,-470.1 -470.1,-470.1"
         transform="translate(0,-2.5e-4)"
         id="path18" /></clipPath><linearGradient
       x1="0"
       y1="0"
       x2="1"
       y2="0"
       gradientUnits="userSpaceOnUse"
       gradientTransform="matrix(4354.44,2917.33,2917.33,-4354.44,8159.21,10321.1)"
       spreadMethod="pad"
       id="linearGradient20"><stop
         style="stop-opacity:1;stop-color:#f9f279"
         offset="0"
         id="stop19" /><stop
         style="stop-opacity:1;stop-color:#f4d76e"
         offset="1"
         id="stop20" /></linearGradient><clipPath
       clipPathUnits="userSpaceOnUse"
       id="clipPath20"><path
         d="m 9340.78,13426.4 c -70.56,0 -141.14,32.1 -169.32,95.3 -36.52,82 -5.77,185.1 52.45,253.4 340.42,399 456.87,696.8 554.62,986 25.72,76.4 80.06,141.9 140.66,195 3.03,2.7 6.15,5.3 9.38,7.8 29.77,23.1 62.95,33.4 95.33,33.4 92.4,0 178.7,-83.4 162.9,-189.6 -2.1,-14.6 -4.7,-29 -7.4,-43.3 -80,-427 -274.26,-832.2 -557.09,-1162.2 -59.61,-69.5 -127.24,-138.4 -214.7,-165.8 -21.32,-6.7 -44.08,-10 -66.83,-10"
         transform="translate(0,-2.5e-4)"
         id="path20" /></clipPath><clipPath
       clipPathUnits="userSpaceOnUse"
       id="clipPath22"><path
         d="m 8685.76,13217 c -116.36,0 -211.37,56.9 -220.37,137.1 -10.04,89.6 90.59,174.3 224.86,189.3 13.84,1.6 27.5,2.4 40.87,2.4 116.37,0 211.37,-56.9 220.38,-137.1 10.04,-89.6 -90.6,-174.3 -224.86,-189.4 -13.84,-1.5 -27.5,-2.3 -40.88,-2.3"
         transform="translate(0,-2.5e-4)"
         id="path22" /></clipPath><clipPath
       clipPathUnits="userSpaceOnUse"
       id="clipPath23"><path
         d="m 7699,1134 v 1916 h 2461 V 1134 Z"
         transform="matrix(4.0548211e-4,0,0,-5.2050802e-4,-3.1197387,1.5902039)"
         id="path23" /></clipPath><clipPath
       clipPathUnits="userSpaceOnUse"
       id="clipPath24"><path
         d="m 10154,1134 v 1916 h 2466 V 1134 Z"
         transform="matrix(4.0548211e-4,0,0,-5.2050802e-4,-4.1172247,1.5902039)"
         id="path24" /></clipPath><clipPath
       clipPathUnits="userSpaceOnUse"
       id="clipPath25"><path
         d="m 12614,1134 v 1916 h 2461 V 1134 Z"
         transform="matrix(4.0548211e-4,0,0,-5.2050802e-4,-5.1147107,1.5902039)"
         id="path25" /></clipPath><clipPath
       clipPathUnits="userSpaceOnUse"
       id="clipPath26"><path
         d="m 7699,820 v 320 h 7376 V 820 Z"
         transform="matrix(1.3538761e-4,0,0,-0.00307503,-1.0416587,3.5058426)"
         id="path26" /></clipPath></defs><sodipodi:namedview
     id="namedview1"
     pagecolor="#ffffff"
     bordercolor="#000000"
     borderopacity="0.25"
     inkscape:showpageshadow="2"
     inkscape:pageopacity="0.0"
     inkscape:pagecheckerboard="0"
     inkscape:deskcolor="#d1d1d1"
     inkscape:zoom="44.333333"
     inkscape:cx="12"
     inkscape:cy="8.9887218"
     inkscape:window-width="1728"
     inkscape:window-height="982"
     inkscape:window-x="0"
     inkscape:window-y="38"
     inkscape:window-maximized="1"
     inkscape:current-layer="svg1" /><path
     d="m 479.99998,-166.8 c -9.6,0 -19.2,-1.6 -28.8,-4.8 -9.6,-3.2 -18.4,-8 -26.4,-14.4 -94.4,-75.2 -164.8,-148.6 -211.2,-220.2 -46.4,-71.6 -69.6,-141.8 -69.6,-210.6 0,-100 31.2,-182.2 93.6,-246.6 62.4,-64.4 143.2,-96.6 242.4,-96.6 99.20004,0 180.00004,32.2 242.40004,96.6 62.4,64.4 93.6,146.6 93.6,246.6 0,68.8 -23.2,139 -69.6,210.6 -46.4,71.6 -116.8,145 -211.2,220.2 -8.00003,6.4 -16.80004,11.2 -26.40004,14.4 -9.6,3.2 -19.2,4.8 -28.8,4.8 z"
     id="path1-2"
     style="stroke-width:1.2;fill:#eaf4fe;fill-opacity:1"
     sodipodi:nodetypes="sscssssssscss" /><path
     d="m 480,-265.2 c 79.2,-64 139,-125.6 179.4,-184.8 40.4,-59.2 60.6,-114.8 60.6,-166.8 0,-72 -22.4,-131.2 -67.2,-177.6 C 608,-840.8 550.4,-864 480,-864 c -70.4,0 -128,23.2 -172.8,69.6 -44.8,46.4 -67.2,105.6 -67.2,177.6 0,52 20.2,107.6 60.6,166.8 40.4,59.2 100.2,120.8 179.4,184.8 z m 0,98.4 c -9.6,0 -19.2,-1.6 -28.8,-4.8 -9.6,-3.2 -18.4,-8 -26.4,-14.4 C 330.4,-261.2 260,-334.6 213.6,-406.2 167.2,-477.8 144,-548 144,-616.8 c 0,-100 31.2,-182.2 93.6,-246.6 62.4,-64.4 143.2,-96.6 242.4,-96.6 99.2,0 180,32.2 242.4,96.6 62.4,64.4 93.6,146.6 93.6,246.6 0,68.8 -23.2,139 -69.6,210.6 -46.4,71.6 -116.8,145 -211.2,220.2 -8,6.4 -16.8,11.2 -26.4,14.4 -9.6,3.2 -19.2,4.8 -28.8,4.8 z M 192,0 C 178.4,0 167,-4.6 157.8,-13.8 148.6,-23 144,-34.4 144,-48 c 0,-13.6 4.6,-25 13.8,-34.2 C 167,-91.4 178.4,-96 192,-96 h 576 c 13.6,0 25,4.6 34.2,13.8 9.2,9.2 13.8,20.6 13.8,34.2 0,13.6 -4.6,25 -13.8,34.2 C 793,-4.6 781.6,0 768,0 Z"
     id="path1"
     style="fill:#01a1ed;fill-opacity:1;stroke-width:1.2"
     sodipodi:nodetypes="cssssssscsscssssssscsssssssssssss" /><g
     id="g26"
     transform="matrix(0.14011081,0,0,0.14011081,275.01298,-805.65244)"><path
       id="path3"
       d="m 14401.2,4467.6 c 2087.3,1151.3 3467.1,3485 3461.8,6362.8 -8.4,4490.4 -3387.7,8604.6 -7548.1,9189.3 -332.65,46.7 -660.91,69.5 -982.08,69.5 -1094.92,0 -2115.16,-264.1 -3009.12,-743.4 l 1307.39,711.2 c 901.59,490.5 1933.69,761.2 3041.81,761.2 321.4,0 649.1,-22.8 982.1,-69.5 4160.4,-584.8 7539.7,-4698.9 7548.1,-9189.3 C 19208.4,8667.1 17814,6324.1 15709,5179 l -1307.8,-711.4"
       style="fill:url(#linearGradient5);fill-opacity:1;fill-rule:nonzero;stroke:none"
       transform="matrix(0.13333333,0,0,-0.13333333,0,2933.3333)"
       clip-path="url(#clipPath5)" /><path
       id="path6"
       d="m 11327.2,3688.9 c -321.2,0 -649.5,22.8 -982.1,69.5 -4160.38,584.7 -7539.84,4699 -7548.18,9189.4 -5.4,2907.4 1403.37,5259.5 3526.78,6398 893.96,479.3 1914.2,743.4 3009.12,743.4 321.17,0 649.43,-22.8 982.08,-69.5 4160.4,-584.7 7539.7,-4698.9 7548.1,-9189.3 5.3,-2877.8 -1374.5,-5211.5 -3461.8,-6362.8 -909.2,-501.5 -1952.6,-778.8 -3074,-778.7 M 9332.81,19193.8 c -745.35,0 -1459.68,-140.4 -2123.15,-417.2 C 6564.32,18507.4 5982.85,18116.2 5481.42,17613.8 4324.29,16454.5 3688.91,14798 3692.35,12949.4 c 1.85,-990.9 183.98,-1978.9 541.36,-2936.6 346.57,-928.6 841.9,-1788.6 1472.22,-2556 627.45,-763.9 1355.7,-1395.8 2164.52,-1878.3 826.53,-493.1 1701.05,-807.1 2599.25,-933.4 287.1,-40.3 575.6,-60.8 857.5,-60.8 h 0.6 c 745,0 1459.1,140.3 2122.3,416.9 645.3,269.2 1226.7,660.3 1728.1,1162.6 1157.3,1159.4 1792.8,2816.1 1789.4,4664.9 -1.9,991 -184,1979 -541.4,2936.6 -346.5,928.7 -841.9,1788.7 -1472.2,2556 -627.4,763.9 -1355.7,1395.8 -2164.5,1878.3 -826.5,493.1 -1701,807.1 -2599.2,933.3 -287.27,40.4 -575.78,60.9 -857.49,60.9"
       style="fill:url(#linearGradient7);fill-opacity:1;fill-rule:nonzero;stroke:none"
       transform="matrix(0.13333333,0,0,-0.13333333,0,2933.3333)"
       clip-path="url(#clipPath7)" /><path
       id="path8"
       d="m 11327.8,4584.3 h -0.6 c -281.9,0 -570.4,20.5 -857.5,60.8 -898.2,126.3 -1772.72,440.3 -2599.25,933.4 -808.82,482.5 -1537.07,1114.4 -2164.52,1878.3 -630.32,767.4 -1125.65,1627.4 -1472.22,2556 -357.38,957.7 -539.51,1945.7 -541.36,2936.6 -3.44,1848.6 631.94,3505.1 1789.07,4664.4 501.43,502.4 1082.9,893.6 1728.24,1162.8 663.47,276.8 1377.8,417.2 2123.15,417.2 281.71,0 570.22,-20.5 857.49,-60.9 898.2,-126.2 1772.7,-440.2 2599.2,-933.3 808.8,-482.5 1537.1,-1114.4 2164.5,-1878.3 630.3,-767.3 1125.7,-1627.3 1472.2,-2556 357.4,-957.6 539.5,-1945.6 541.4,-2936.6 3.4,-1848.8 -632.1,-3505.5 -1789.4,-4664.9 -501.4,-502.3 -1082.8,-893.4 -1728.1,-1162.6 -663.2,-276.6 -1377.3,-416.9 -2122.3,-416.9 M 10089,9703.5 c 112.7,0 224.5,-33.3 320.5,-98.4 l 978.4,-663.1 c 101.8,-68.9 211.9,-99.9 318.8,-99.9 154.5,0 302.3,64.4 409.3,171.8 42.6,42.1 285.8,282.3 322.1,324.3 99.9,115.5 155.2,272.4 130.9,449.1 l -168.1,1223.4 c -20.4,148.3 18.3,297.3 105.4,415.9 l 657.1,631 c 8.5,8.1 16.6,16.3 24.4,24.7 l 265.8,250.8 c 312,299.6 195.3,842.8 -216.5,975 l -1369.2,439.9 c -153.4,49.3 -278.9,161.2 -345.5,307.9 l -593.3,1307.9 c -99.7,220 -309.1,332.8 -527.5,332.8 -172.9,0 -351.5,-70.6 -486.17,-214.6 -21.14,-22.6 -150.55,-176.6 -216.61,-255.3 -35.32,-37.8 -66.53,-81.7 -92.28,-131.6 L 9140.87,14192 c -64.53,-28.4 -134.75,-45.1 -207.51,-48.1 l -1051.46,-42.4 c -176.01,-7.1 -317.28,-103.9 -430.63,-205.9 -30.39,-27.4 -218.33,-226.2 -248.46,-258.1 -189.57,-194.5 -233.28,-517.5 -36.74,-760.6 l 924.1,-1142.9 c 99.35,-122.9 143.37,-281.4 121.59,-437.9 L 8008.94,9838.3 c -49.84,-358.2 234.81,-650.8 564.69,-650.8 69.64,0 141.3,13 212.25,41.2 l 1092.01,434.4 c 68.14,27 139.81,40.4 211.11,40.4 m -5390.57,3917.7 c -259.63,0 -470.1,-210.5 -470.1,-470.1 0,-259.6 210.47,-470.1 470.1,-470.1 259.63,0 470.1,210.5 470.1,470.1 0,259.6 -210.47,470.1 -470.1,470.1 m 3537.88,4768.2 c -609.47,0 -1483.15,-451.3 -2251.29,-1219.5 -1057.05,-1057 -1514.06,-2313.9 -1020.79,-2807.1 79.06,-79.1 158.86,-114.9 241.5,-114.9 432.98,0 943.68,982.4 1831.3,1870 1057.06,1057.1 2248.42,1579.5 1755.16,2072.8 -134.82,134.8 -326.65,198.7 -555.88,198.7"
       style="fill:url(#linearGradient9);fill-opacity:1;fill-rule:nonzero;stroke:none"
       transform="matrix(0.13333333,0,0,-0.13333333,0,2933.3333)"
       clip-path="url(#clipPath9)" /><path
       id="path10"
       d="m 12116,9013.9 c 116.9,117.5 184.8,286.5 158.4,478.8 l -168.1,1223.4 c -24.9,181.1 38.4,363.2 170.2,489.9 l 229.8,220.6 c -87.1,-118.6 -125.8,-267.6 -105.4,-415.9 L 12569,9787.3 c 24.3,-176.7 -31,-333.6 -130.9,-449.1 -36.3,-42 -279.5,-282.2 -322.1,-324.3 m 1071.8,3068.4 c 280.8,302.9 155.3,802.5 -245.3,931.2 l -1369.2,439.9 c -153.4,49.3 -278.9,161.2 -345.5,307.9 l -593.3,1307.9 c -100.9,222.6 -310.6,335.3 -520.6,335.3 -151.91,0 -303.91,-58.9 -415.08,-177.8 66.06,78.7 195.47,232.7 216.61,255.3 134.67,144 313.27,214.6 486.17,214.6 218.4,0 427.8,-112.8 527.5,-332.8 l 593.3,-1307.9 c 66.6,-146.7 192.1,-258.6 345.5,-307.9 l 1369.2,-439.9 c 411.8,-132.2 528.5,-675.4 216.5,-975 l -265.8,-250.8 m -5984.99,1555.2 c 30.13,31.9 218.07,230.7 248.46,258.1 113.35,102 254.62,198.8 430.63,205.9 l 1051.46,42.4 c 72.76,3 142.98,19.7 207.51,48.1 l -17.4,-33.7 c -94.21,-182.7 -279.33,-300.7 -484.72,-309 l -1051.47,-42.4 c -157.01,-6.3 -289.17,-71.6 -384.47,-169.4"
       style="fill:url(#linearGradient12);fill-opacity:1;fill-rule:nonzero;stroke:none"
       transform="matrix(0.13333333,0,0,-0.13333333,0,2933.3333)"
       clip-path="url(#clipPath12)" /><path
       id="path13"
       d="m 11706.7,8842.1 c -106.9,0 -217,31 -318.8,99.9 l -978.4,663.1 c -96,65.1 -207.8,98.4 -320.5,98.4 -71.3,0 -142.97,-13.4 -211.11,-40.4 L 8785.88,9228.7 c -70.95,-28.2 -142.61,-41.2 -212.25,-41.2 -329.88,0 -614.53,292.6 -564.69,650.8 l 202.82,1457.8 c 21.78,156.5 -22.24,315 -121.59,437.9 l -924.1,1142.9 c -196.54,243.1 -152.83,566.1 36.74,760.6 95.3,97.8 227.46,163.1 384.47,169.4 l 1051.47,42.4 c 205.39,8.3 390.51,126.3 484.72,309 l 17.4,33.7 465.67,903.1 c 25.75,49.9 56.96,93.8 92.28,131.6 111.17,118.9 263.17,177.8 415.08,177.8 210,0 419.7,-112.7 520.6,-335.3 l 593.3,-1307.9 c 66.6,-146.7 192.1,-258.6 345.5,-307.9 l 1369.2,-439.9 c 400.6,-128.7 526.1,-628.3 245.3,-931.2 -7.8,-8.4 -15.9,-16.6 -24.4,-24.7 l -657.1,-631 -229.8,-220.6 c -131.8,-126.7 -195.1,-308.8 -170.2,-489.9 l 168.1,-1223.4 c 26.4,-192.3 -41.5,-361.3 -158.4,-478.8 -107,-107.4 -254.8,-171.8 -409.3,-171.8 m -2975.58,4703.7 c -13.37,0 -27.03,-0.8 -40.87,-2.4 -134.27,-15 -234.9,-99.7 -224.86,-189.3 9,-80.2 104.01,-137.1 220.37,-137.1 13.38,0 27.04,0.8 40.88,2.3 134.26,15.1 234.9,99.8 224.86,189.4 -9.01,80.2 -104.01,137.1 -220.38,137.1 m 1292.78,1451.5 c -32.38,0 -65.56,-10.3 -95.33,-33.4 -3.23,-2.5 -6.35,-5.1 -9.38,-7.8 -60.6,-53.1 -114.94,-118.6 -140.66,-195 -97.75,-289.2 -214.2,-587 -554.62,-986 -58.22,-68.3 -88.97,-171.4 -52.45,-253.4 28.18,-63.2 98.76,-95.3 169.32,-95.3 22.75,0 45.51,3.3 66.83,10 87.46,27.4 155.09,96.3 214.7,165.8 282.83,330 477.09,735.2 557.09,1162.2 2.7,14.3 5.3,28.7 7.4,43.3 15.8,106.2 -70.5,189.6 -162.9,189.6"
       style="fill:url(#linearGradient14);fill-opacity:1;fill-rule:nonzero;stroke:none"
       transform="matrix(0.13333333,0,0,-0.13333333,0,2933.3333)"
       clip-path="url(#clipPath14)" /><path
       id="path15"
       d="m 5205.73,14247.9 c -82.64,0 -162.44,35.8 -241.5,114.9 -493.27,493.2 -36.26,1750.1 1020.79,2807.1 768.14,768.2 1641.82,1219.5 2251.29,1219.5 229.23,0 421.06,-63.9 555.88,-198.7 493.26,-493.3 -698.1,-1015.7 -1755.16,-2072.8 -887.62,-887.6 -1398.32,-1870 -1831.3,-1870"
       style="fill:url(#linearGradient1);fill-opacity:1;fill-rule:nonzero;stroke:none"
       transform="matrix(0.13333333,0,0,-0.13333333,0,2933.3333)"
       clip-path="url(#clipPath16)" /><path
       id="path17"
       d="m 4698.43,12681 c -259.63,0 -470.1,210.5 -470.1,470.1 0,259.6 210.47,470.1 470.1,470.1 259.63,0 470.1,-210.5 470.1,-470.1 0,-259.6 -210.47,-470.1 -470.1,-470.1"
       style="fill:url(#linearGradient2);fill-opacity:1;fill-rule:nonzero;stroke:none"
       transform="matrix(0.13333333,0,0,-0.13333333,0,2933.3333)"
       clip-path="url(#clipPath18)" /><path
       id="path19"
       d="m 9340.78,13426.4 c -70.56,0 -141.14,32.1 -169.32,95.3 -36.52,82 -5.77,185.1 52.45,253.4 340.42,399 456.87,696.8 554.62,986 25.72,76.4 80.06,141.9 140.66,195 3.03,2.7 6.15,5.3 9.38,7.8 29.77,23.1 62.95,33.4 95.33,33.4 92.4,0 178.7,-83.4 162.9,-189.6 -2.1,-14.6 -4.7,-29 -7.4,-43.3 -80,-427 -274.26,-832.2 -557.09,-1162.2 -59.61,-69.5 -127.24,-138.4 -214.7,-165.8 -21.32,-6.7 -44.08,-10 -66.83,-10"
       style="fill:url(#linearGradient3);fill-opacity:1;fill-rule:nonzero;stroke:none"
       transform="matrix(0.13333333,0,0,-0.13333333,0,2933.3333)"
       clip-path="url(#clipPath20)" /><path
       id="path21"
       d="m 8685.76,13217 c -116.36,0 -211.37,56.9 -220.37,137.1 -10.04,89.6 90.59,174.3 224.86,189.3 13.84,1.6 27.5,2.4 40.87,2.4 116.37,0 211.37,-56.9 220.38,-137.1 10.04,-89.6 -90.6,-174.3 -224.86,-189.4 -13.84,-1.5 -27.5,-2.3 -40.88,-2.3"
       style="fill:url(#linearGradient4);fill-opacity:1;fill-rule:nonzero;stroke:none"
       transform="matrix(0.13333333,0,0,-0.13333333,0,2933.3333)"
       clip-path="url(#clipPath22)" /></g></svg>
